  0
SECTION
  2
ENTITIES
  0
LINE
  8
2
  62
0
  10
    0.700000
  20
    0.326795
  30
    0.000000
  11
    0.699974
  21
    0.330165
  31
    0.000000
  0
LINE
  8
2
  62
0
  10
    0.699974
  20
    0.330165
  30
    0.000000
  11
    0.699852
  21
    0.332275
  31
    0.000000
  0
LINE
  8
2
  62
0
  10
    0.699852
  20
    0.332275
  30
    0.000000
  11
    0.699829
  21
    0.334411
  31
    0.000000
  0
LINE
  8
2
  62
0
  10
    0.699829
  20
    0.334411
  30
    0.000000
  11
    0.699708
  21
    0.337419
  31
    0.000000
  0
LINE
  8
2
  62
0
  10
    0.699708
  20
    0.337419
  30
    0.000000
  11
    0.699146
  21
    0.337858
  31
    0.000000
  0
LINE
  8
2
  62
0
  10
    0.699146
  20
    0.337858
  30
    0.000000
  11
    0.699041
  21
    0.339683
  31
    0.000000
  0
LINE
  8
2
  62
0
  10
    0.699041
  20
    0.339683
  30
    0.000000
  11
    0.699019
  21
    0.342627
  31
    0.000000
  0
LINE
  8
2
  62
0
  10
    0.699019
  20
    0.342627
  30
    0.000000
  11
    0.698914
  21
    0.342768
  31
    0.000000
  0
LINE
  8
2
  62
0
  10
    0.698914
  20
    0.342768
  30
    0.000000
  11
    0.698895
  21
    0.344538
  31
    0.000000
  0
LINE
  8
2
  62
0
  10
    0.698895
  20
    0.344538
  30
    0.000000
  11
    0.698773
  21
    0.347855
  31
    0.000000
  0
LINE
  8
2
  62
0
  10
    0.698773
  20
    0.347855
  30
    0.000000
  11
    0.698211
  21
    0.349717
  31
    0.000000
  0
LINE
  8
2
  62
0
  10
    0.698211
  20
    0.349717
  30
    0.000000
  11
    0.698106
  21
    0.351807
  31
    0.000000
  0
LINE
  8
2
  62
0
  10
    0.698106
  20
    0.351807
  30
    0.000000
  11
    0.697545
  21
    0.354568
  31
    0.000000
  0
LINE
  8
2
  62
0
  10
    0.697545
  20
    0.354568
  30
    0.000000
  11
    0.694952
  21
    0.353866
  31
    0.000000
  0
LINE
  8
2
  62
0
  10
    0.694952
  20
    0.353866
  30
    0.000000
  11
    0.694469
  21
    0.355479
  31
    0.000000
  0
LINE
  8
2
  62
0
  10
    0.694469
  20
    0.355479
  30
    0.000000
  11
    0.694365
  21
    0.358377
  31
    0.000000
  0
LINE
  8
2
  62
0
  10
    0.694365
  20
    0.358377
  30
    0.000000
  11
    0.693882
  21
    0.358306
  31
    0.000000
  0
LINE
  8
2
  62
0
  10
    0.693882
  20
    0.358306
  30
    0.000000
  11
    0.693792
  21
    0.360036
  31
    0.000000
  0
LINE
  8
2
  62
0
  10
    0.693792
  20
    0.360036
  30
    0.000000
  11
    0.693770
  21
    0.363257
  31
    0.000000
  0
LINE
  8
2
  62
0
  10
    0.693770
  20
    0.363257
  30
    0.000000
  11
    0.693665
  21
    0.364679
  31
    0.000000
  0
LINE
  8
2
  62
0
  10
    0.693665
  20
    0.364679
  30
    0.000000
  11
    0.693646
  21
    0.366687
  31
    0.000000
  0
LINE
  8
2
  62
0
  10
    0.693646
  20
    0.366687
  30
    0.000000
  11
    0.693541
  21
    0.369006
  31
    0.000000
  0
LINE
  8
2
  62
0
  10
    0.693541
  20
    0.369006
  30
    0.000000
  11
    0.693059
  21
    0.366269
  31
    0.000000
  0
LINE
  8
2
  62
0
  10
    0.693059
  20
    0.366269
  30
    0.000000
  11
    0.692969
  21
    0.367503
  31
    0.000000
  0
LINE
  8
2
  62
0
  10
    0.692969
  20
    0.367503
  30
    0.000000
  11
    0.692949
  21
    0.370319
  31
    0.000000
  0
LINE
  8
2
  62
0
  10
    0.692949
  20
    0.370319
  30
    0.000000
  11
    0.692860
  21
    0.369869
  31
    0.000000
  0
LINE
  8
2
  62
0
  10
    0.692860
  20
    0.369869
  30
    0.000000
  11
    0.692843
  21
    0.371529
  31
    0.000000
  0
LINE
  8
2
  62
0
  10
    0.692843
  20
    0.371529
  30
    0.000000
  11
    0.692721
  21
    0.374951
  31
    0.000000
  0
LINE
  8
2
  62
0
  10
    0.692721
  20
    0.374951
  30
    0.000000
  11
    0.692159
  21
    0.377303
  31
    0.000000
  0
LINE
  8
2
  62
0
  10
    0.692159
  20
    0.377303
  30
    0.000000
  11
    0.692055
  21
    0.379483
  31
    0.000000
  0
LINE
  8
2
  62
0
  10
    0.692055
  20
    0.379483
  30
    0.000000
  11
    0.691493
  21
    0.382733
  31
    0.000000
  0
LINE
  8
2
  62
0
  10
    0.691493
  20
    0.382733
  30
    0.000000
  11
    0.688900
  21
    0.384286
  31
    0.000000
  0
LINE
  8
2
  62
0
  10
    0.688900
  20
    0.384286
  30
    0.000000
  11
    0.688418
  21
    0.386318
  31
    0.000000
  0
LINE
  8
2
  62
0
  10
    0.688418
  20
    0.386318
  30
    0.000000
  11
    0.688313
  21
    0.389307
  31
    0.000000
  0
LINE
  8
2
  62
0
  10
    0.688313
  20
    0.389307
  30
    0.000000
  11
    0.687831
  21
    0.389656
  31
    0.000000
  0
LINE
  8
2
  62
0
  10
    0.687831
  20
    0.389656
  30
    0.000000
  11
    0.687741
  21
    0.391464
  31
    0.000000
  0
LINE
  8
2
  62
0
  10
    0.687741
  20
    0.391464
  30
    0.000000
  11
    0.687179
  21
    0.395022
  31
    0.000000
  0
LINE
  8
2
  62
0
  10
    0.687179
  20
    0.395022
  30
    0.000000
  11
    0.684586
  21
    0.397999
  31
    0.000000
  0
LINE
  8
2
  62
0
  10
    0.684586
  20
    0.397999
  30
    0.000000
  11
    0.684103
  21
    0.400296
  31
    0.000000
  0
LINE
  8
2
  62
0
  10
    0.684103
  20
    0.400296
  30
    0.000000
  11
    0.681510
  21
    0.404171
  31
    0.000000
  0
LINE
  8
2
  62
0
  10
    0.681510
  20
    0.404171
  30
    0.000000
  11
    0.669541
  21
    0.408612
  31
    0.000000
  0
LINE
  8
2
  62
0
  10
    0.669541
  20
    0.408612
  30
    0.000000
  11
    0.667314
  21
    0.411182
  31
    0.000000
  0
LINE
  8
2
  62
0
  10
    0.667314
  20
    0.411182
  30
    0.000000
  11
    0.666832
  21
    0.414287
  31
    0.000000
  0
LINE
  8
2
  62
0
  10
    0.666832
  20
    0.414287
  30
    0.000000
  11
    0.664605
  21
    0.415173
  31
    0.000000
  0
LINE
  8
2
  62
0
  10
    0.664605
  20
    0.415173
  30
    0.000000
  11
    0.664191
  21
    0.417081
  31
    0.000000
  0
LINE
  8
2
  62
0
  10
    0.664191
  20
    0.417081
  30
    0.000000
  11
    0.664086
  21
    0.420347
  31
    0.000000
  0
LINE
  8
2
  62
0
  10
    0.664086
  20
    0.420347
  30
    0.000000
  11
    0.663604
  21
    0.421976
  31
    0.000000
  0
LINE
  8
2
  62
0
  10
    0.663604
  20
    0.421976
  30
    0.000000
  11
    0.663514
  21
    0.424022
  31
    0.000000
  0
LINE
  8
2
  62
0
  10
    0.663514
  20
    0.424022
  30
    0.000000
  11
    0.663032
  21
    0.426549
  31
    0.000000
  0
LINE
  8
2
  62
0
  10
    0.663032
  20
    0.426549
  30
    0.000000
  11
    0.660805
  21
    0.424768
  31
    0.000000
  0
LINE
  8
2
  62
0
  10
    0.660805
  20
    0.424768
  30
    0.000000
  11
    0.660390
  21
    0.426181
  31
    0.000000
  0
LINE
  8
2
  62
0
  10
    0.660390
  20
    0.426181
  30
    0.000000
  11
    0.660301
  21
    0.429035
  31
    0.000000
  0
LINE
  8
2
  62
0
  10
    0.660301
  20
    0.429035
  30
    0.000000
  11
    0.659886
  21
    0.428763
  31
    0.000000
  0
LINE
  8
2
  62
0
  10
    0.659886
  20
    0.428763
  30
    0.000000
  11
    0.659809
  21
    0.430456
  31
    0.000000
  0
LINE
  8
2
  62
0
  10
    0.659809
  20
    0.430456
  30
    0.000000
  11
    0.659787
  21
    0.433772
  31
    0.000000
  0
LINE
  8
2
  62
0
  10
    0.659787
  20
    0.433772
  30
    0.000000
  11
    0.659682
  21
    0.435633
  31
    0.000000
  0
LINE
  8
2
  62
0
  10
    0.659682
  20
    0.435633
  30
    0.000000
  11
    0.659663
  21
    0.437723
  31
    0.000000
  0
LINE
  8
2
  62
0
  10
    0.659663
  20
    0.437723
  30
    0.000000
  11
    0.659558
  21
    0.440482
  31
    0.000000
  0
LINE
  8
2
  62
0
  10
    0.659558
  20
    0.440482
  30
    0.000000
  11
    0.659076
  21
    0.439772
  31
    0.000000
  0
LINE
  8
2
  62
0
  10
    0.659076
  20
    0.439772
  30
    0.000000
  11
    0.658986
  21
    0.441383
  31
    0.000000
  0
LINE
  8
2
  62
0
  10
    0.658986
  20
    0.441383
  30
    0.000000
  11
    0.658966
  21
    0.444281
  31
    0.000000
  0
LINE
  8
2
  62
0
  10
    0.658966
  20
    0.444281
  30
    0.000000
  11
    0.658877
  21
    0.444208
  31
    0.000000
  0
LINE
  8
2
  62
0
  10
    0.658877
  20
    0.444208
  30
    0.000000
  11
    0.658860
  21
    0.445938
  31
    0.000000
  0
LINE
  8
2
  62
0
  10
    0.658860
  20
    0.445938
  30
    0.000000
  11
    0.658755
  21
    0.449006
  31
    0.000000
  0
LINE
  8
2
  62
0
  10
    0.658755
  20
    0.449006
  30
    0.000000
  11
    0.658273
  21
    0.449719
  31
    0.000000
  0
LINE
  8
2
  62
0
  10
    0.658273
  20
    0.449719
  30
    0.000000
  11
    0.658183
  21
    0.451595
  31
    0.000000
  0
LINE
  8
2
  62
0
  10
    0.658183
  20
    0.451595
  30
    0.000000
  11
    0.657701
  21
    0.453207
  31
    0.000000
  0
LINE
  8
2
  62
0
  10
    0.657701
  20
    0.453207
  30
    0.000000
  11
    0.655474
  21
    0.447201
  31
    0.000000
  0
LINE
  8
2
  62
0
  10
    0.655474
  20
    0.447201
  30
    0.000000
  11
    0.655060
  21
    0.447827
  31
    0.000000
  0
LINE
  8
2
  62
0
  10
    0.655060
  20
    0.447827
  30
    0.000000
  11
    0.654970
  21
    0.450511
  31
    0.000000
  0
LINE
  8
2
  62
0
  10
    0.654970
  20
    0.450511
  30
    0.000000
  11
    0.654556
  21
    0.449454
  31
    0.000000
  0
LINE
  8
2
  62
0
  10
    0.654556
  20
    0.449454
  30
    0.000000
  11
    0.654478
  21
    0.451001
  31
    0.000000
  0
LINE
  8
2
  62
0
  10
    0.654478
  20
    0.451001
  30
    0.000000
  11
    0.654459
  21
    0.454175
  31
    0.000000
  0
LINE
  8
2
  62
0
  10
    0.654459
  20
    0.454175
  30
    0.000000
  11
    0.654369
  21
    0.455383
  31
    0.000000
  0
LINE
  8
2
  62
0
  10
    0.654369
  20
    0.455383
  30
    0.000000
  11
    0.654353
  21
    0.457351
  31
    0.000000
  0
LINE
  8
2
  62
0
  10
    0.654353
  20
    0.457351
  30
    0.000000
  11
    0.654263
  21
    0.459457
  31
    0.000000
  0
LINE
  8
2
  62
0
  10
    0.654263
  20
    0.459457
  30
    0.000000
  11
    0.653848
  21
    0.455733
  31
    0.000000
  0
LINE
  8
2
  62
0
  10
    0.653848
  20
    0.455733
  30
    0.000000
  11
    0.653771
  21
    0.456783
  31
    0.000000
  0
LINE
  8
2
  62
0
  10
    0.653771
  20
    0.456783
  30
    0.000000
  11
    0.653755
  21
    0.459559
  31
    0.000000
  0
LINE
  8
2
  62
0
  10
    0.653755
  20
    0.459559
  30
    0.000000
  11
    0.653678
  21
    0.458926
  31
    0.000000
  0
LINE
  8
2
  62
0
  10
    0.653678
  20
    0.458926
  30
    0.000000
  11
    0.653663
  21
    0.460552
  31
    0.000000
  0
LINE
  8
2
  62
0
  10
    0.653663
  20
    0.460552
  30
    0.000000
  11
    0.653542
  21
    0.464010
  31
    0.000000
  0
LINE
  8
2
  62
0
  10
    0.653542
  20
    0.464010
  30
    0.000000
  11
    0.652980
  21
    0.466529
  31
    0.000000
  0
LINE
  8
2
  62
0
  10
    0.652980
  20
    0.466529
  30
    0.000000
  11
    0.652875
  21
    0.468741
  31
    0.000000
  0
LINE
  8
2
  62
0
  10
    0.652875
  20
    0.468741
  30
    0.000000
  11
    0.652313
  21
    0.472158
  31
    0.000000
  0
LINE
  8
2
  62
0
  10
    0.652313
  20
    0.472158
  30
    0.000000
  11
    0.649720
  21
    0.474486
  31
    0.000000
  0
LINE
  8
2
  62
0
  10
    0.649720
  20
    0.474486
  30
    0.000000
  11
    0.649238
  21
    0.476662
  31
    0.000000
  0
LINE
  8
2
  62
0
  10
    0.649238
  20
    0.476662
  30
    0.000000
  11
    0.649133
  21
    0.479682
  31
    0.000000
  0
LINE
  8
2
  62
0
  10
    0.649133
  20
    0.479682
  30
    0.000000
  11
    0.648651
  21
    0.480175
  31
    0.000000
  0
LINE
  8
2
  62
0
  10
    0.648651
  20
    0.480175
  30
    0.000000
  11
    0.648561
  21
    0.482010
  31
    0.000000
  0
LINE
  8
2
  62
0
  10
    0.648561
  20
    0.482010
  30
    0.000000
  11
    0.647999
  21
    0.485736
  31
    0.000000
  0
LINE
  8
2
  62
0
  10
    0.647999
  20
    0.485736
  30
    0.000000
  11
    0.645406
  21
    0.489486
  31
    0.000000
  0
LINE
  8
2
  62
0
  10
    0.645406
  20
    0.489486
  30
    0.000000
  11
    0.644924
  21
    0.491927
  31
    0.000000
  0
LINE
  8
2
  62
0
  10
    0.644924
  20
    0.491927
  30
    0.000000
  11
    0.642330
  21
    0.496577
  31
    0.000000
  0
LINE
  8
2
  62
0
  10
    0.642330
  20
    0.496577
  30
    0.000000
  11
    0.630361
  21
    0.504590
  31
    0.000000
  0
LINE
  8
2
  62
0
  10
    0.630361
  20
    0.504590
  30
    0.000000
  11
    0.628135
  21
    0.507824
  31
    0.000000
  0
LINE
  8
2
  62
0
  10
    0.628135
  20
    0.507824
  30
    0.000000
  11
    0.627652
  21
    0.511073
  31
    0.000000
  0
LINE
  8
2
  62
0
  10
    0.627652
  20
    0.511073
  30
    0.000000
  11
    0.625425
  21
    0.512624
  31
    0.000000
  0
LINE
  8
2
  62
0
  10
    0.625425
  20
    0.512624
  30
    0.000000
  11
    0.625011
  21
    0.514656
  31
    0.000000
  0
LINE
  8
2
  62
0
  10
    0.625011
  20
    0.514656
  30
    0.000000
  11
    0.624906
  21
    0.517953
  31
    0.000000
  0
LINE
  8
2
  62
0
  10
    0.624906
  20
    0.517953
  30
    0.000000
  11
    0.624424
  21
    0.519726
  31
    0.000000
  0
LINE
  8
2
  62
0
  10
    0.624424
  20
    0.519726
  30
    0.000000
  11
    0.624334
  21
    0.521799
  31
    0.000000
  0
LINE
  8
2
  62
0
  10
    0.624334
  20
    0.521799
  30
    0.000000
  11
    0.623852
  21
    0.524470
  31
    0.000000
  0
LINE
  8
2
  62
0
  10
    0.623852
  20
    0.524470
  30
    0.000000
  11
    0.621625
  21
    0.523354
  31
    0.000000
  0
LINE
  8
2
  62
0
  10
    0.621625
  20
    0.523354
  30
    0.000000
  11
    0.621211
  21
    0.524890
  31
    0.000000
  0
LINE
  8
2
  62
0
  10
    0.621211
  20
    0.524890
  30
    0.000000
  11
    0.621121
  21
    0.527771
  31
    0.000000
  0
LINE
  8
2
  62
0
  10
    0.621121
  20
    0.527771
  30
    0.000000
  11
    0.620707
  21
    0.527623
  31
    0.000000
  0
LINE
  8
2
  62
0
  10
    0.620707
  20
    0.527623
  30
    0.000000
  11
    0.620629
  21
    0.529339
  31
    0.000000
  0
LINE
  8
2
  62
0
  10
    0.620629
  20
    0.529339
  30
    0.000000
  11
    0.620068
  21
    0.533170
  31
    0.000000
  0
LINE
  8
2
  62
0
  10
    0.620068
  20
    0.533170
  30
    0.000000
  11
    0.617475
  21
    0.537410
  31
    0.000000
  0
LINE
  8
2
  62
0
  10
    0.617475
  20
    0.537410
  30
    0.000000
  11
    0.616992
  21
    0.539942
  31
    0.000000
  0
LINE
  8
2
  62
0
  10
    0.616992
  20
    0.539942
  30
    0.000000
  11
    0.614399
  21
    0.545079
  31
    0.000000
  0
LINE
  8
2
  62
0
  10
    0.614399
  20
    0.545079
  30
    0.000000
  11
    0.602430
  21
    0.555348
  31
    0.000000
  0
LINE
  8
2
  62
0
  10
    0.602430
  20
    0.555348
  30
    0.000000
  11
    0.600203
  21
    0.559001
  31
    0.000000
  0
LINE
  8
2
  62
0
  10
    0.600203
  20
    0.559001
  30
    0.000000
  11
    0.599721
  21
    0.562341
  31
    0.000000
  0
LINE
  8
2
  62
0
  10
    0.599721
  20
    0.562341
  30
    0.000000
  11
    0.597494
  21
    0.564312
  31
    0.000000
  0
LINE
  8
2
  62
0
  10
    0.597494
  20
    0.564312
  30
    0.000000
  11
    0.597079
  21
    0.566422
  31
    0.000000
  0
LINE
  8
2
  62
0
  10
    0.597079
  20
    0.566422
  30
    0.000000
  11
    0.594486
  21
    0.571868
  31
    0.000000
  0
LINE
  8
2
  62
0
  10
    0.594486
  20
    0.571868
  30
    0.000000
  11
    0.582517
  21
    0.583559
  31
    0.000000
  0
LINE
  8
2
  62
0
  10
    0.582517
  20
    0.583559
  30
    0.000000
  11
    0.580290
  21
    0.587478
  31
    0.000000
  0
LINE
  8
2
  62
0
  10
    0.580290
  20
    0.587478
  30
    0.000000
  11
    0.568321
  21
    0.600068
  31
    0.000000
  0
LINE
  8
2
  62
0
  10
    0.568321
  20
    0.600068
  30
    0.000000
  11
    0.513077
  21
    0.644734
  31
    0.000000
  0
LINE
  8
2
  62
0
  10
    0.513077
  20
    0.644734
  30
    0.000000
  11
    0.502799
  21
    0.654788
  31
    0.000000
  0
LINE
  8
2
  62
0
  10
    0.502799
  20
    0.654788
  30
    0.000000
  11
    0.500572
  21
    0.659514
  31
    0.000000
  0
LINE
  8
2
  62
0
  10
    0.500572
  20
    0.659514
  30
    0.000000
  11
    0.490294
  21
    0.667884
  31
    0.000000
  0
LINE
  8
2
  62
0
  10
    0.490294
  20
    0.667884
  30
    0.000000
  11
    0.488382
  21
    0.671185
  31
    0.000000
  0
LINE
  8
2
  62
0
  10
    0.488382
  20
    0.671185
  30
    0.000000
  11
    0.487899
  21
    0.674802
  31
    0.000000
  0
LINE
  8
2
  62
0
  10
    0.487899
  20
    0.674802
  30
    0.000000
  11
    0.485672
  21
    0.678052
  31
    0.000000
  0
LINE
  8
2
  62
0
  10
    0.485672
  20
    0.678052
  30
    0.000000
  11
    0.485258
  21
    0.680400
  31
    0.000000
  0
LINE
  8
2
  62
0
  10
    0.485258
  20
    0.680400
  30
    0.000000
  11
    0.483031
  21
    0.684549
  31
    0.000000
  0
LINE
  8
2
  62
0
  10
    0.483031
  20
    0.684549
  30
    0.000000
  11
    0.472753
  21
    0.690252
  31
    0.000000
  0
LINE
  8
2
  62
0
  10
    0.472753
  20
    0.690252
  30
    0.000000
  11
    0.470841
  21
    0.693057
  31
    0.000000
  0
LINE
  8
2
  62
0
  10
    0.470841
  20
    0.693057
  30
    0.000000
  11
    0.470426
  21
    0.696212
  31
    0.000000
  0
LINE
  8
2
  62
0
  10
    0.470426
  20
    0.696212
  30
    0.000000
  11
    0.468514
  21
    0.697333
  31
    0.000000
  0
LINE
  8
2
  62
0
  10
    0.468514
  20
    0.697333
  30
    0.000000
  11
    0.468158
  21
    0.699285
  31
    0.000000
  0
LINE
  8
2
  62
0
  10
    0.468158
  20
    0.699285
  30
    0.000000
  11
    0.468054
  21
    0.702678
  31
    0.000000
  0
LINE
  8
2
  62
0
  10
    0.468054
  20
    0.702678
  30
    0.000000
  11
    0.467571
  21
    0.704890
  31
    0.000000
  0
LINE
  8
2
  62
0
  10
    0.467571
  20
    0.704890
  30
    0.000000
  11
    0.467482
  21
    0.707045
  31
    0.000000
  0
LINE
  8
2
  62
0
  10
    0.467482
  20
    0.707045
  30
    0.000000
  11
    0.466999
  21
    0.710155
  31
    0.000000
  0
LINE
  8
2
  62
0
  10
    0.466999
  20
    0.710155
  30
    0.000000
  11
    0.464772
  21
    0.711066
  31
    0.000000
  0
LINE
  8
2
  62
0
  10
    0.464772
  20
    0.711066
  30
    0.000000
  11
    0.464358
  21
    0.712979
  31
    0.000000
  0
LINE
  8
2
  62
0
  10
    0.464358
  20
    0.712979
  30
    0.000000
  11
    0.464268
  21
    0.715942
  31
    0.000000
  0
LINE
  8
2
  62
0
  10
    0.464268
  20
    0.715942
  30
    0.000000
  11
    0.463854
  21
    0.716172
  31
    0.000000
  0
LINE
  8
2
  62
0
  10
    0.463854
  20
    0.716172
  30
    0.000000
  11
    0.463777
  21
    0.717958
  31
    0.000000
  0
LINE
  8
2
  62
0
  10
    0.463777
  20
    0.717958
  30
    0.000000
  11
    0.463294
  21
    0.721377
  31
    0.000000
  0
LINE
  8
2
  62
0
  10
    0.463294
  20
    0.721377
  30
    0.000000
  11
    0.461068
  21
    0.723711
  31
    0.000000
  0
LINE
  8
2
  62
0
  10
    0.461068
  20
    0.723711
  30
    0.000000
  11
    0.460653
  21
    0.725889
  31
    0.000000
  0
LINE
  8
2
  62
0
  10
    0.460653
  20
    0.725889
  30
    0.000000
  11
    0.458426
  21
    0.729122
  31
    0.000000
  0
LINE
  8
2
  62
0
  10
    0.458426
  20
    0.729122
  30
    0.000000
  11
    0.448148
  21
    0.730600
  31
    0.000000
  0
LINE
  8
2
  62
0
  10
    0.448148
  20
    0.730600
  30
    0.000000
  11
    0.446236
  21
    0.732619
  31
    0.000000
  0
LINE
  8
2
  62
0
  10
    0.446236
  20
    0.732619
  30
    0.000000
  11
    0.445822
  21
    0.735604
  31
    0.000000
  0
LINE
  8
2
  62
0
  10
    0.445822
  20
    0.735604
  30
    0.000000
  11
    0.443909
  21
    0.735939
  31
    0.000000
  0
LINE
  8
2
  62
0
  10
    0.443909
  20
    0.735939
  30
    0.000000
  11
    0.443554
  21
    0.737745
  31
    0.000000
  0
LINE
  8
2
  62
0
  10
    0.443554
  20
    0.737745
  30
    0.000000
  11
    0.443464
  21
    0.740985
  31
    0.000000
  0
LINE
  8
2
  62
0
  10
    0.443464
  20
    0.740985
  30
    0.000000
  11
    0.443050
  21
    0.742494
  31
    0.000000
  0
LINE
  8
2
  62
0
  10
    0.443050
  20
    0.742494
  30
    0.000000
  11
    0.442972
  21
    0.744519
  31
    0.000000
  0
LINE
  8
2
  62
0
  10
    0.442972
  20
    0.744519
  30
    0.000000
  11
    0.442558
  21
    0.746926
  31
    0.000000
  0
LINE
  8
2
  62
0
  10
    0.442558
  20
    0.746926
  30
    0.000000
  11
    0.440646
  21
    0.744595
  31
    0.000000
  0
LINE
  8
2
  62
0
  10
    0.440646
  20
    0.744595
  30
    0.000000
  11
    0.440290
  21
    0.745904
  31
    0.000000
  0
LINE
  8
2
  62
0
  10
    0.440290
  20
    0.745904
  30
    0.000000
  11
    0.440213
  21
    0.748736
  31
    0.000000
  0
LINE
  8
2
  62
0
  10
    0.440213
  20
    0.748736
  30
    0.000000
  11
    0.439857
  21
    0.748362
  31
    0.000000
  0
LINE
  8
2
  62
0
  10
    0.439857
  20
    0.748362
  30
    0.000000
  11
    0.439791
  21
    0.750036
  31
    0.000000
  0
LINE
  8
2
  62
0
  10
    0.439791
  20
    0.750036
  30
    0.000000
  11
    0.439768
  21
    0.753385
  31
    0.000000
  0
LINE
  8
2
  62
0
  10
    0.439768
  20
    0.753385
  30
    0.000000
  11
    0.439664
  21
    0.755396
  31
    0.000000
  0
LINE
  8
2
  62
0
  10
    0.439664
  20
    0.755396
  30
    0.000000
  11
    0.439644
  21
    0.757514
  31
    0.000000
  0
LINE
  8
2
  62
0
  10
    0.439644
  20
    0.757514
  30
    0.000000
  11
    0.439540
  21
    0.760424
  31
    0.000000
  0
LINE
  8
2
  62
0
  10
    0.439540
  20
    0.760424
  30
    0.000000
  11
    0.439057
  21
    0.760410
  31
    0.000000
  0
LINE
  8
2
  62
0
  10
    0.439057
  20
    0.760410
  30
    0.000000
  11
    0.438968
  21
    0.762150
  31
    0.000000
  0
LINE
  8
2
  62
0
  10
    0.438968
  20
    0.762150
  30
    0.000000
  11
    0.438948
  21
    0.765076
  31
    0.000000
  0
LINE
  8
2
  62
0
  10
    0.438948
  20
    0.765076
  30
    0.000000
  11
    0.438858
  21
    0.765133
  31
    0.000000
  0
LINE
  8
2
  62
0
  10
    0.438858
  20
    0.765133
  30
    0.000000
  11
    0.438842
  21
    0.766887
  31
    0.000000
  0
LINE
  8
2
  62
0
  10
    0.438842
  20
    0.766887
  30
    0.000000
  11
    0.438737
  21
    0.770106
  31
    0.000000
  0
LINE
  8
2
  62
0
  10
    0.438737
  20
    0.770106
  30
    0.000000
  11
    0.438255
  21
    0.771515
  31
    0.000000
  0
LINE
  8
2
  62
0
  10
    0.438255
  20
    0.771515
  30
    0.000000
  11
    0.438165
  21
    0.773520
  31
    0.000000
  0
LINE
  8
2
  62
0
  10
    0.438165
  20
    0.773520
  30
    0.000000
  11
    0.437683
  21
    0.775828
  31
    0.000000
  0
LINE
  8
2
  62
0
  10
    0.437683
  20
    0.775828
  30
    0.000000
  11
    0.435456
  21
    0.773034
  31
    0.000000
  0
LINE
  8
2
  62
0
  10
    0.435456
  20
    0.773034
  30
    0.000000
  11
    0.435041
  21
    0.774258
  31
    0.000000
  0
LINE
  8
2
  62
0
  10
    0.435041
  20
    0.774258
  30
    0.000000
  11
    0.434952
  21
    0.777071
  31
    0.000000
  0
LINE
  8
2
  62
0
  10
    0.434952
  20
    0.777071
  30
    0.000000
  11
    0.434537
  21
    0.776611
  31
    0.000000
  0
LINE
  8
2
  62
0
  10
    0.434537
  20
    0.776611
  30
    0.000000
  11
    0.434460
  21
    0.778269
  31
    0.000000
  0
LINE
  8
2
  62
0
  10
    0.434460
  20
    0.778269
  30
    0.000000
  11
    0.434441
  21
    0.781472
  31
    0.000000
  0
LINE
  8
2
  62
0
  10
    0.434441
  20
    0.781472
  30
    0.000000
  11
    0.434351
  21
    0.782809
  31
    0.000000
  0
LINE
  8
2
  62
0
  10
    0.434351
  20
    0.782809
  30
    0.000000
  11
    0.434334
  21
    0.784801
  31
    0.000000
  0
LINE
  8
2
  62
0
  10
    0.434334
  20
    0.784801
  30
    0.000000
  11
    0.434245
  21
    0.787037
  31
    0.000000
  0
LINE
  8
2
  62
0
  10
    0.434245
  20
    0.787037
  30
    0.000000
  11
    0.433830
  21
    0.783910
  31
    0.000000
  0
LINE
  8
2
  62
0
  10
    0.433830
  20
    0.783910
  30
    0.000000
  11
    0.433753
  21
    0.785072
  31
    0.000000
  0
LINE
  8
2
  62
0
  10
    0.433753
  20
    0.785072
  30
    0.000000
  11
    0.433737
  21
    0.787872
  31
    0.000000
  0
LINE
  8
2
  62
0
  10
    0.433737
  20
    0.787872
  30
    0.000000
  11
    0.433659
  21
    0.787350
  31
    0.000000
  0
LINE
  8
2
  62
0
  10
    0.433659
  20
    0.787350
  30
    0.000000
  11
    0.433645
  21
    0.788996
  31
    0.000000
  0
LINE
  8
2
  62
0
  10
    0.433645
  20
    0.788996
  30
    0.000000
  11
    0.433541
  21
    0.792320
  31
    0.000000
  0
LINE
  8
2
  62
0
  10
    0.433541
  20
    0.792320
  30
    0.000000
  11
    0.433058
  21
    0.794218
  31
    0.000000
  0
LINE
  8
2
  62
0
  10
    0.433058
  20
    0.794218
  30
    0.000000
  11
    0.432968
  21
    0.796315
  31
    0.000000
  0
LINE
  8
2
  62
0
  10
    0.432968
  20
    0.796315
  30
    0.000000
  11
    0.432486
  21
    0.799111
  31
    0.000000
  0
LINE
  8
2
  62
0
  10
    0.432486
  20
    0.799111
  30
    0.000000
  11
    0.430259
  21
    0.798572
  31
    0.000000
  0
LINE
  8
2
  62
0
  10
    0.430259
  20
    0.798572
  30
    0.000000
  11
    0.429845
  21
    0.800215
  31
    0.000000
  0
LINE
  8
2
  62
0
  10
    0.429845
  20
    0.800215
  30
    0.000000
  11
    0.429755
  21
    0.803120
  31
    0.000000
  0
LINE
  8
2
  62
0
  10
    0.429755
  20
    0.803120
  30
    0.000000
  11
    0.429341
  21
    0.803079
  31
    0.000000
  0
LINE
  8
2
  62
0
  10
    0.429341
  20
    0.803079
  30
    0.000000
  11
    0.429264
  21
    0.804815
  31
    0.000000
  0
LINE
  8
2
  62
0
  10
    0.429264
  20
    0.804815
  30
    0.000000
  11
    0.428781
  21
    0.807920
  31
    0.000000
  0
LINE
  8
2
  62
0
  10
    0.428781
  20
    0.807920
  30
    0.000000
  11
    0.426554
  21
    0.808804
  31
    0.000000
  0
LINE
  8
2
  62
0
  10
    0.426554
  20
    0.808804
  30
    0.000000
  11
    0.426140
  21
    0.810712
  31
    0.000000
  0
LINE
  8
2
  62
0
  10
    0.426140
  20
    0.810712
  30
    0.000000
  11
    0.423913
  21
    0.812495
  31
    0.000000
  0
LINE
  8
2
  62
0
  10
    0.423913
  20
    0.812495
  30
    0.000000
  11
    0.413635
  21
    0.807280
  31
    0.000000
  0
LINE
  8
2
  62
0
  10
    0.413635
  20
    0.807280
  30
    0.000000
  11
    0.411723
  21
    0.808053
  31
    0.000000
  0
LINE
  8
2
  62
0
  10
    0.411723
  20
    0.808053
  30
    0.000000
  11
    0.411308
  21
    0.810769
  31
    0.000000
  0
LINE
  8
2
  62
0
  10
    0.411308
  20
    0.810769
  30
    0.000000
  11
    0.409396
  21
    0.809859
  31
    0.000000
  0
LINE
  8
2
  62
0
  10
    0.409396
  20
    0.809859
  30
    0.000000
  11
    0.409040
  21
    0.811433
  31
    0.000000
  0
LINE
  8
2
  62
0
  10
    0.409040
  20
    0.811433
  30
    0.000000
  11
    0.408951
  21
    0.814614
  31
    0.000000
  0
LINE
  8
2
  62
0
  10
    0.408951
  20
    0.814614
  30
    0.000000
  11
    0.408536
  21
    0.815854
  31
    0.000000
  0
LINE
  8
2
  62
0
  10
    0.408536
  20
    0.815854
  30
    0.000000
  11
    0.408459
  21
    0.817828
  31
    0.000000
  0
LINE
  8
2
  62
0
  10
    0.408459
  20
    0.817828
  30
    0.000000
  11
    0.408045
  21
    0.819966
  31
    0.000000
  0
LINE
  8
2
  62
0
  10
    0.408045
  20
    0.819966
  30
    0.000000
  11
    0.406133
  21
    0.816388
  31
    0.000000
  0
LINE
  8
2
  62
0
  10
    0.406133
  20
    0.816388
  30
    0.000000
  11
    0.405777
  21
    0.817466
  31
    0.000000
  0
LINE
  8
2
  62
0
  10
    0.405777
  20
    0.817466
  30
    0.000000
  11
    0.405700
  21
    0.820248
  31
    0.000000
  0
LINE
  8
2
  62
0
  10
    0.405700
  20
    0.820248
  30
    0.000000
  11
    0.405344
  21
    0.819642
  31
    0.000000
  0
LINE
  8
2
  62
0
  10
    0.405344
  20
    0.819642
  30
    0.000000
  11
    0.405278
  21
    0.821273
  31
    0.000000
  0
LINE
  8
2
  62
0
  10
    0.405278
  20
    0.821273
  30
    0.000000
  11
    0.405258
  21
    0.824571
  31
    0.000000
  0
LINE
  8
2
  62
0
  10
    0.405258
  20
    0.824571
  30
    0.000000
  11
    0.405169
  21
    0.826347
  31
    0.000000
  0
LINE
  8
2
  62
0
  10
    0.405169
  20
    0.826347
  30
    0.000000
  11
    0.405152
  21
    0.828421
  31
    0.000000
  0
LINE
  8
2
  62
0
  10
    0.405152
  20
    0.828421
  30
    0.000000
  11
    0.405062
  21
    0.831096
  31
    0.000000
  0
LINE
  8
2
  62
0
  10
    0.405062
  20
    0.831096
  30
    0.000000
  11
    0.404648
  21
    0.829997
  31
    0.000000
  0
LINE
  8
2
  62
0
  10
    0.404648
  20
    0.829997
  30
    0.000000
  11
    0.404571
  21
    0.831536
  31
    0.000000
  0
LINE
  8
2
  62
0
  10
    0.404571
  20
    0.831536
  30
    0.000000
  11
    0.404554
  21
    0.834417
  31
    0.000000
  0
LINE
  8
2
  62
0
  10
    0.404554
  20
    0.834417
  30
    0.000000
  11
    0.404477
  21
    0.834273
  31
    0.000000
  0
LINE
  8
2
  62
0
  10
    0.404477
  20
    0.834273
  30
    0.000000
  11
    0.404463
  21
    0.835989
  31
    0.000000
  0
LINE
  8
2
  62
0
  10
    0.404463
  20
    0.835989
  30
    0.000000
  11
    0.404373
  21
    0.838972
  31
    0.000000
  0
LINE
  8
2
  62
0
  10
    0.404373
  20
    0.838972
  30
    0.000000
  11
    0.403959
  21
    0.839297
  31
    0.000000
  0
LINE
  8
2
  62
0
  10
    0.403959
  20
    0.839297
  30
    0.000000
  11
    0.403881
  21
    0.841100
  31
    0.000000
  0
LINE
  8
2
  62
0
  10
    0.403881
  20
    0.841100
  30
    0.000000
  11
    0.403467
  21
    0.842323
  31
    0.000000
  0
LINE
  8
2
  62
0
  10
    0.403467
  20
    0.842323
  30
    0.000000
  11
    0.401555
  21
    0.834521
  31
    0.000000
  0
LINE
  8
2
  62
0
  10
    0.401555
  20
    0.834521
  30
    0.000000
  11
    0.401199
  21
    0.834812
  31
    0.000000
  0
LINE
  8
2
  62
0
  10
    0.401199
  20
    0.834812
  30
    0.000000
  11
    0.401122
  21
    0.837424
  31
    0.000000
  0
LINE
  8
2
  62
0
  10
    0.401122
  20
    0.837424
  30
    0.000000
  11
    0.400766
  21
    0.836032
  31
    0.000000
  0
LINE
  8
2
  62
0
  10
    0.400766
  20
    0.836032
  30
    0.000000
  11
    0.400700
  21
    0.837517
  31
    0.000000
  0
LINE
  8
2
  62
0
  10
    0.400700
  20
    0.837517
  30
    0.000000
  11
    0.400683
  21
    0.840676
  31
    0.000000
  0
LINE
  8
2
  62
0
  10
    0.400683
  20
    0.840676
  30
    0.000000
  11
    0.400606
  21
    0.841811
  31
    0.000000
  0
LINE
  8
2
  62
0
  10
    0.400606
  20
    0.841811
  30
    0.000000
  11
    0.400592
  21
    0.843765
  31
    0.000000
  0
LINE
  8
2
  62
0
  10
    0.400592
  20
    0.843765
  30
    0.000000
  11
    0.400515
  21
    0.845799
  31
    0.000000
  0
LINE
  8
2
  62
0
  10
    0.400515
  20
    0.845799
  30
    0.000000
  11
    0.400159
  21
    0.841741
  31
    0.000000
  0
LINE
  8
2
  62
0
  10
    0.400159
  20
    0.841741
  30
    0.000000
  11
    0.400093
  21
    0.842729
  31
    0.000000
  0
LINE
  8
2
  62
0
  10
    0.400093
  20
    0.842729
  30
    0.000000
  11
    0.400079
  21
    0.845491
  31
    0.000000
  0
LINE
  8
2
  62
0
  10
    0.400079
  20
    0.845491
  30
    0.000000
  11
    0.400012
  21
    0.844796
  31
    0.000000
  0
LINE
  8
2
  62
0
  10
    0.400012
  20
    0.844796
  30
    0.000000
  11
    0.400000
  21
    0.846410
  31
    0.000000
  0
ENDSEC
  0
EOF
